<?xml version="1.0" encoding="UTF-8" standalone="no"?>
<!-- Created with Inkscape (http://www.inkscape.org/) -->

<svg
   version="1.1"
   id="svg2"
   width="300.00003"
   height="240.57819"
   viewBox="0 0 300.00003 240.57818"
   sodipodi:docname="Logo_Universitas_Terbuka_dan_Warna_GSM_UT_2010.pdf"
   xmlns:inkscape="http://www.inkscape.org/namespaces/inkscape"
   xmlns:sodipodi="http://sodipodi.sourceforge.net/DTD/sodipodi-0.dtd"
   xmlns="http://www.w3.org/2000/svg"
   xmlns:svg="http://www.w3.org/2000/svg">
  <defs
     id="defs6">
    <clipPath
       clipPathUnits="userSpaceOnUse"
       id="clipPath180">
      <path
         d="M 0,0 H 841.89 V 595.276 H 0 Z"
         id="path178" />
    </clipPath>
  </defs>
  <sodipodi:namedview
     id="namedview4"
     pagecolor="#ffffff"
     bordercolor="#000000"
     borderopacity="0.25"
     inkscape:showpageshadow="2"
     inkscape:pageopacity="0.0"
     inkscape:pagecheckerboard="0"
     inkscape:deskcolor="#d1d1d1"
     showgrid="false" />
  <g
     id="g8"
     inkscape:groupmode="layer"
     inkscape:label="Logo_Universitas_Terbuka_dan_Warna_GSM_UT_2010"
     transform="matrix(1.3333333,0,0,-1.3333333,-152.81652,640.90537)">
    <g
       id="g176"
       clip-path="url(#clipPath180)"
       transform="translate(-32.104351,32.104351)">
      <g
         id="g407"
         transform="matrix(0.80320208,0,0,0.80320208,31.738692,66.073712)">
        <g
           id="g194"
           transform="translate(225.7458,369.8801)">
          <path
             d="M 0,0 C -4.247,6.426 -7.431,13.596 -9.314,21.267 H 52.153 L 50.404,0 Z M 47.902,-30.497 C 30.605,-27.912 15.389,-19.045 4.72,-6.328 h 45.167 z m 64.213,24.169 C 101.167,-19.379 85.435,-28.372 67.57,-30.688 l -1.981,24.36 z m 14.037,27.595 C 124.269,13.596 121.085,6.426 116.839,0 H 65.08 l -1.728,21.267 z m 1.305,25.714 c 0.43,-3.089 0.654,-6.244 0.654,-9.448 0,-3.375 -0.246,-6.693 -0.723,-9.937 H 62.835 L 61.26,46.981 Z M 117.16,74.575 c 4.171,-6.433 7.29,-13.604 9.108,-21.266 H 60.75 L 59.019,74.575 Z M 4.315,80.905 c 12.78,15.522 32.268,25.435 54.104,25.435 21.837,0 41.328,-9.913 54.104,-25.435 H 58.506 l -0.727,8.962 -0.737,-8.962 z M -9.429,53.309 c 1.817,7.662 4.937,14.833 9.107,21.266 H 56.525 L 54.776,53.309 Z m -1.844,-15.776 c 0,3.204 0.221,6.359 0.651,9.448 H 54.26 L 52.67,27.596 h -63.22 c -0.477,3.244 -0.723,6.562 -0.723,9.937"
             style="fill:#214395;fill-opacity:1;fill-rule:nonzero;stroke:none"
             id="path196" />
        </g>
        <g
           id="g198"
           transform="translate(286.25349,309.37669)">
          <path
             d="m 0,0 c 0.463,-0.652 1.084,-2.035 0.336,-3.536 -0.759,-1.511 -2.4,-1.824 -2.4,-1.824 V -16.457 C 14.244,1.102 5.179,10.326 4.847,13.013 2.606,31.106 56.891,33.09 56.891,33.09 l 1.883,-4.079 C 16.929,26.635 11.721,17.961 10.825,16.976 9.003,14.972 9.936,9.728 14.551,13.013 28.234,22.739 61.593,24.309 61.593,24.309 l 2.198,-4.391 C 12.708,13.651 13,8.342 12.668,7.696 10.6,3.688 10.637,-2.031 11.742,-1.406 33.037,10.655 70.061,12.706 70.061,12.706 L 80.098,-4.855 C 9.852,-13.949 -1.749,-28.373 -1.749,-28.373 h -1.858 c 0,0 -11.6,14.424 -81.846,23.518 l 10.037,17.561 c 0,0 37.024,-2.051 58.318,-14.112 1.106,-0.625 1.142,5.094 -0.925,9.102 -0.332,0.646 -0.04,5.955 -51.123,12.222 l 2.198,4.391 c 0,0 33.359,-1.57 47.039,-11.296 4.622,-3.285 5.551,1.959 3.729,3.963 -0.896,0.985 -6.104,9.659 -47.949,12.035 l 1.883,4.079 c 0,0 54.281,-1.984 52.044,-20.077 -0.332,-2.687 -9.397,-11.911 6.91,-29.47 V -5.36 c 0,0 -1.62,0.237 -2.4,1.769 -0.748,1.473 -0.224,2.975 0.34,3.642 0,0 0.907,1.297 2.764,1.297 0,0 1.641,-0.016 2.588,-1.348"
             style="fill:#214395;fill-opacity:1;fill-rule:nonzero;stroke:none"
             id="path200" />
        </g>
        <g
           id="g202"
           transform="translate(210.6963,307.127)">
          <path
             d="m 0,0 c 47.668,-4.704 61.857,-17.167 64.445,-18.667 4.384,-2.534 3.679,0.741 3.447,1.583 -0.549,2.031 -1.644,4.23 -2.208,5.316 C 60.574,-1.778 54.408,0.159 54.408,0.159 37.161,7.369 7.995,10.192 7.995,10.192 2.667,10.817 2.667,9.878 2.667,9.878 L -2.667,0.47 Z"
             style="fill:#fddd04;fill-opacity:1;fill-rule:nonzero;stroke:none"
             id="path204" />
        </g>
        <g
           id="g206"
           transform="translate(359.11929,307.5968)">
          <path
             d="m 0,0 -5.335,9.408 c 0,0 0,0.939 -5.327,0.314 0,0 -29.163,-2.823 -46.41,-10.033 0,0 -6.169,-1.937 -11.28,-11.927 -0.56,-1.086 -1.658,-3.285 -2.204,-5.316 -0.231,-0.842 -0.94,-4.117 3.444,-1.583 2.591,1.5 16.651,14.106 64.315,18.808 z"
             style="fill:#fddd04;fill-opacity:1;fill-rule:nonzero;stroke:none"
             id="path208" />
        </g>
      </g>
    </g>
  </g>
</svg>
